<svg width="25" height="31" viewBox="0 0 25 31" fill="none" xmlns="http://www.w3.org/2000/svg">
<path d="M24.2169 10.487C22.1687 11.7527 20.9036 13.9224 20.9036 16.3332C20.9036 19.0453 22.5301 21.5164 25 22.541C24.5181 24.108 23.7952 25.5545 22.8916 26.8804C21.5663 28.7488 20.1807 30.6774 18.1325 30.6774C16.0843 30.6774 15.4819 29.472 13.0723 29.472C10.7229 29.472 9.87952 30.7377 7.95181 30.7377C6.0241 30.7377 4.6988 28.9899 3.19277 26.8202C1.20482 23.8067 0.060241 20.311 0 16.6345C0 10.6678 3.85542 7.47348 7.71084 7.47348C9.75904 7.47348 11.4458 8.79942 12.7108 8.79942C13.9157 8.79942 15.8434 7.41321 18.1325 7.41321C20.5422 7.35294 22.8313 8.49807 24.2169 10.487ZM17.0482 4.88187C18.0723 3.67647 18.6145 2.16972 18.6747 0.6027C18.6747 0.42189 18.6747 0.18081 18.6145 0C16.8675 0.18081 15.241 1.02459 14.0964 2.35053C13.0723 3.49566 12.4699 4.94214 12.4096 6.50916C12.4096 6.68997 12.4096 6.87078 12.4699 7.05159C12.5904 7.05159 12.7711 7.11186 12.8916 7.11186C14.5181 6.99132 16.0241 6.14754 17.0482 4.88187Z" fill="black"/>
</svg>
