<svg width="30" height="31" viewBox="0 0 30 31" fill="none" xmlns="http://www.w3.org/2000/svg">
<path d="M30 15.6542C30 14.5689 29.9026 13.5253 29.7217 12.5234H15.3062V18.4441H23.5436C23.1888 20.3574 22.1104 21.9784 20.4894 23.0638V26.9042H25.436C28.3303 24.2396 30 20.3156 30 15.6542Z" fill="#4285F4"/>
<path d="M15.306 30.6123C19.4387 30.6123 22.9034 29.2417 25.4359 26.9041L20.4892 23.0636C19.1187 23.982 17.3654 24.5247 15.306 24.5247C11.3195 24.5247 7.94518 21.8322 6.74157 18.2144H1.62793V22.18C4.14648 27.1824 9.32273 30.6123 15.306 30.6123Z" fill="#34A853"/>
<path d="M6.74165 18.2144C6.43553 17.296 6.2616 16.315 6.2616 15.3062C6.2616 14.2974 6.43553 13.3164 6.74165 12.3981V8.43237H1.62802C0.556586 10.5653 -0.000944285 12.9193 1.20054e-06 15.3062C1.20054e-06 17.7761 0.591374 20.1137 1.62802 22.1801L6.74165 18.2144Z" fill="#FBBC05"/>
<path d="M15.306 6.08766C17.5533 6.08766 19.5709 6.85993 21.1571 8.37662L25.5472 3.98655C22.8965 1.5167 19.4317 0 15.306 0C9.32273 0 4.14648 3.42996 1.62793 8.43228L6.74157 12.398C7.94518 8.78015 11.3195 6.08766 15.306 6.08766Z" fill="#EA4335"/>
</svg>
